P1
# Created by GIMP version 2.10.18 PNM plug-in
40 47
0000000000000000000000000000000000000000000000011100000011100011100000
0000000000000000011100000010100011100011100000000000000001110000001110
0011100010100001110000011100000011100000000000001110000101000001110111
0011100011100000000000000111000001110111001110001110000111001110000000
0000000111000000001110000111001010000000000000000001110000000000011100
1110000000000000000001110000000000000000000000000001110000000111000011
1000000000000000000001110000000000000011100011100011100000000111000000
0000000011100010100011100111000000001110000000000000001110001110010100
0000001110011100111000000000000000011100000000111001110010100011100000
0000000000000000000001110011100011100111000001110000000000000000000000
0011100111000001010000011100000000000111000000011100000111000001110000
0000000111000000000000000000000001110000000000011100000000011100000000
0000000111000111000001110111011100011100000000011100011100000111010101
1100010100000000011100011100000111011100000001110000111000000000000000
0000000000000000000000101000000000000000000001110000000000000011100000
0000001110011101110011100111000000000000000000111001010111001010010100
0000000001110000111001110000001110011100000011100111000000000000000000
0000000000000011100111000000000011100111000000000000001110000000000000
0011100101000000000000000000000000001110001110011100111000000000000000
0000001010000000000000101000000000000000000000111000000000000011100000
0001110000111000000000000000000000000000000101000010100000000000001110
0000000000000111000011101110001110001010000000000000000000000000101000
1010001110000111000000000000000000111000111000000000010100000011100111
0000000000000000000000011100000010100111000000011100000000000000000000
0011100111001110010100011100011100000000000000000000101001110001010001
0100011100000000000000111000000001110001110001110000000000000000000000
000000000000000111000000000000000000000000000000000000000000