P1
# Created by GIMP version 2.10.18 PNM plug-in
25 25
0000000000000000000000000000000000001110000000111000000000000111000000
0101000000001110111000000011100001110101000000000000000000101011100000
0111000000000111000000000010100111000000000000111001110011100111000000
0111000000011100111001110011100000000000011100111000000000011100000000
0111000001110011100000111000000000111001110000011100000000011100000000
0011100001110000000000000000000000101000000011100000000111011100011101
1100000000111000000010101110000111011100000001110000000010100000000000
0000000000011101110011100000000000000000111001110011100011100000011100
11100111000111000000000000000011100011100000000000000000000000000