P1
# Created by GIMP version 2.10.18 PNM plug-in
10 10
0000000000011101110001110101000111011100000000000000111000000010101110
001110111000000011100000000000